/* XPM */
static char * file_xpm[] = {
"16 16 8 1",
" 	c None",
".	c #000000",
"+	c #FFFFFF",
"@	c #CBCBFF",
"#	c #D9D9D9",
"$	c #666698",
"%	c #9898CB",
"&	c #080808",
"                ",
"      .         ",
"     .+..       ",
"    .+@@@..     ",
"   .+@@@@@@..   ",
"  .++++++++@@.. ",
" .+@+@+@+@++@@..",
".@@@@@@@@@@#@..$",
"$..%%%%%%%%%&%..",
" $...%%%%%%.%.$$",
"  $.$..$$$...$  ",
"   $.%$.$.$$    ",
"    $....$$     ",
"     $.$ $      ",
"                ",
"                "};
