/* XPM */
static char * folder_xpm[] = {
"16 16 23 1",
" 	c None",
".	c #000000",
"+	c #CB9833",
"@	c #080808",
"#	c #484848",
"$	c #585858",
"%	c #FFFF98",
"&	c #606060",
"*	c #686868",
"=	c #FFCB66",
"-	c #FF9898",
";	c #FEFEFE",
">	c #666666",
",	c #888888",
"'	c #669833",
")	c #505050",
"!	c #989866",
"~	c #FFFF00",
"{	c #404040",
"]	c #181818",
"^	c #707070",
"/	c #787878",
"(	c #282828",
"     ..         ",
"   ...+@.  #$   ",
".. .%&*++..+=$. ",
".=..%%%&*++=-==@",
" .;=>,%%%&*+=+=@",
" .=;=;**%%%&*=+.",
" .;=;==;*'%%%). ",
" .=;=;====!*~). ",
"  .====;===$~{. ",
"  .========$~.  ",
"  .=========$.  ",
"  ..+=======].^,",
"    ..+=====..//",
"      ..+===.(/ ",
"        ..+=.,  ",
"          ...   "};
