/* XPM */
static char * volume_xpm[] = {
"16 16 9 1",
" 	c None",
".	c #000000",
"+	c #D6D3D6",
"@	c #FFFFFF",
"#	c #7B797B",
"$	c #ADAAAD",
"%	c #737173",
"&	c #00E700",
"*	c #E70000",
"                ",
"      ..        ",
"     .++..      ",
"    .+++++..    ",
"   .++++++++..  ",
"  .++++++++++@. ",
" .++++++++++@#. ",
".@@++++++++@##. ",
".$$@@+++++@###.#",
".$$$$@@++@%##.##",
".$&*$$$@@%##.## ",
"..$$$$$$###.##  ",
"  ..$$$$##.##   ",
"    ..$$#.##    ",
"      ...##     ",
"                "};
