/* XPM */
static char * idea_xpm[] = {
"36 36 15 1",
" 	c None",
".	c #FFFE00",
"+	c #FEFE2A",
"@	c #FEFE5B",
"#	c #FFFF8E",
"$	c #FEFEC5",
"%	c #FFFFFF",
"&	c #FEC500",
"*	c #FE8E00",
"=	c #9F9F9F",
"-	c #000000",
";	c #454545",
">	c #D4D4D4",
",	c #C2C2C2",
"'	c #656565",
"                                    ",
"                                    ",
"                                    ",
"           .......                  ",
"         +.@@@@+@@..                ",
"        .@@######@+..               ",
"       .###$$$$$$#@+..              ",
"      .#@$%%%%%$$##@+.&             ",
"      .@$%%%%%%%$##@++&             ",
"     .@#$%%%%%%%%$###+.&            ",
"     .@#$%%%%%%%%$##@+.&            ",
"     .@#$%%%%%&%$$$#@++&            ",
"     .@#$%%%%*%*%$$#@+.&            ",
"     .@##$%%%*%&$$$#@+.&            ",
"     .@+#$$%%*%&$##@@+.&            ",
"     ..@@#$$$$*&####++&&            ",
"      .+###$$#&##@@++.&             ",
"      ..+@####&#@@@++&&             ",
"       ..+@@#@&@@@++&&              ",
"        ..++@@&++++&&               ",
"         &.+++&++.&&                ",
"          &&..*.&&*                 ",
"           *&#*&**                  ",
"           *&#*&**                  ",
"           *&#*&**                  ",
"            &#*&*                   ",
"           =-----;                  ",
"            >,%;;                   ",
"           =-----;                  ",
"            >,%;;                   ",
"           =-----;                  ",
"            >, ;;-'''''''''''''     ",
"                 '''''''''''''      ",
"                '''''''''''''       ",
"                                    ",
"                                    "};
