/* XPM */
static char * info_xpm[] = {
"36 36 13 1",
" 	c None",
".	c #000075",
"+	c #0000E1",
"@	c #0000AA",
"#	c #0000FE",
"$	c #002AFE",
"%	c #0000C5",
"&	c #FFFFFF",
"*	c #000090",
"=	c #000000",
"-	c #2A8EFE",
";	c #005AFF",
">	c #656565",
"                                    ",
"                                    ",
"                                    ",
"           ....                     ",
"         ..++@...                   ",
"         ##$##%@.                   ",
"        .+$&$++@@.                  ",
"        .+#$+%%@*.                  ",
"        .*+++%%@*.                  ",
"        ..%++@%**.                  ",
"         .@*@@*..                   ",
"         ..*.**..                   ",
"       $$==....==.$                 ",
"       --$$====...;                 ",
"       ++--$....$;.                 ",
"         ++--$$$;..                 ",
"         ++++--;...                 ",
"         ++++++....                 ",
"         ++++++....                 ",
"         ++++++....                 ",
"         ++++++....                 ",
"       $ ++++++.... >               ",
"      $$ ++++++.... >>>             ",
"     --$ ++++++....  >>>>           ",
"     ++- ++++++....$$==>>>>         ",
"     ++++++++++...$$$$.=>>>>>       ",
"     ++++++++++..$$$$..=>>>>>>>     ",
"       ++++++++.$$$$...=>>>>>>      ",
"         ++++++--$$....=>>>>>       ",
"           ++++++-....=>>>>>        ",
"             +++++...=>>>>>         ",
"               +++*.=>>>>>          ",
"                 +.=>>>>>           ",
"                   >>>>>            ",
"                                    ",
"                                    "};
