/* XPM */
static char * stop_xpm[] = {
"36 36 9 1",
" 	c None",
".	c #DF0000",
"+	c #FE5A5A",
"@	c #740000",
"#	c #A90000",
"$	c #FD0000",
"%	c #C40000",
"&	c #FFFFFF",
"*	c #8D0000",
"                                    ",
"                                    ",
"                                    ",
"              ...                   ",
"             ......                 ",
"            .........               ",
"           ............             ",
"           ++.........+             ",
"            .++......+@             ",
"            ...++...+@              ",
"            .....+++@@              ",
"            .......@@@              ",
"             .....@@@               ",
"             .....@@@               ",
"             .....@@                ",
"              ...@@@                ",
"              ...@@@                ",
"              ...@@                 ",
"              ..@@@                 ",
"               .@@@                 ",
"               .@@                  ",
"                @                   ",
"                 @@                 ",
"             #...#@@@               ",
"             .$$$.%#@               ",
"            #%$&$..##@              ",
"            #%$$$..#*@              ",
"            @#%..%.#*@              ",
"            @@#%%%##*@              ",
"             @*###*@*               ",
"             @@**@@@@               ",
"               @@@@                 ",
"                                    ",
"                                    ",
"                                    ",
"                                    "};
