/* XPM */
static char * warning_xpm[] = {
"36 36 8 1",
" 	c None",
".	c #FFFE00",
"+	c #FEC500",
"@	c #FFFFFF",
"#	c #FE8E00",
"$	c #C55A00",
"%	c #000000",
"&	c #656565",
"                                    ",
"                                    ",
"                                    ",
"            ...                     ",
"           ......                   ",
"          .........                 ",
"         ............               ",
"           .........                ",
"         ++@@......@#               ",
"         ++++@@...@##               ",
"         ++++++@@@###               ",
"         ++++++++####               ",
"         ++++++++####               ",
"         ++++++++####               ",
"         ++++++++####               ",
"         ++++++++####               ",
"         ++++++++####               ",
"         ++++++++####               ",
"         ++++++++####               ",
"         ++++++++####               ",
"           ++++++###                ",
"          $%%++++##                 ",
"         $$$$%%++#                  ",
"           $$$$%%%$$                ",
"         ++%%$$$$$$%#               ",
"         ++++%%$$$%##               ",
"         ++++++%%%###               ",
"         ++++++++#### &&            ",
"         ++++++++#### &&&&          ",
"         ++++++++#### &&&&&&        ",
"           ++++++###%&&&&&&         ",
"             ++++##%&&&&&&          ",
"               ++#%&&&&&&           ",
"                  &&&&&&            ",
"                                    ",
"                                    "};
